name analog
datacolumns 19
datarows 42
range 0.2615 0.28200000000000003
endheader
time	ground_force_vx	ground_force_vy	ground_force_vz	ground_force_px	ground_force_py	ground_force_pz	l_ground_force_vx	l_ground_force_vy	l_ground_force_vz	l_ground_force_px	l_ground_force_py	l_ground_force_pz	ground_torque_x	ground_torque_y	ground_torque_z	l_ground_torque_x	l_ground_torque_y	l_ground_torque_z
0.2615	-0.0	-0.0	-0.0	10.510177612304688	117.31372833251952	-664.7205810546875	-7.46067476272583	-23.926246643066406	-224.641845703125	-0.0	-0.0	-0.0	-0.0	-0.0	-0.0	31097.7890625	8346.8232421875	-5457.5703125
0.262	-0.0	-0.0	-0.0	8.127305030822754	116.12777709960938	-655.4385375976562	-9.801654815673828	-24.279455184936523	-231.80105590820312	-0.0	-0.0	-0.0	-0.0	-0.0	-0.0	32455.982421875	8830.3779296875	-6464.77001953125
0.2625	-0.0	-0.0	-0.0	5.515522480010986	114.11451721191406	-647.6704711914062	-11.869026184082031	-24.422134399414062	-244.3344268798828	-0.0	-0.0	-0.0	-0.0	-0.0	-0.0	33984.3125	9561.998046875	-7329.47802734375
0.263	-0.0	-0.0	-0.0	2.9902093410491943	112.65489959716795	-643.0673828125	-14.450706481933594	-24.791059494018555	-256.1332092285156	-0.0	-0.0	-0.0	-0.0	-0.0	-0.0	35770.3203125	10288.7109375	-8082.13232421875
0.2635	-0.0	-0.0	-0.0	0.2956296801567077	111.6192398071289	-631.8019409179688	-16.790428161621094	-25.3667049407959	-264.4752502441406	-0.0	-0.0	-0.0	-0.0	-0.0	-0.0	37768.1640625	10853.205078125	-8887.93359375
0.264	-0.0	-0.0	-0.0	-2.72802472114563	110.19327545166016	-625.555908203125	-18.88612365722656	-26.03643035888672	-274.21417236328125	-0.0	-0.0	-0.0	-0.0	-0.0	-0.0	39091.05859375	11241.494140625	-9500.1337890625
0.2645	-0.0	-0.0	-0.0	-5.43240213394165	109.42384338378906	-617.5995483398438	-21.11316680908203	-26.831199645996094	-282.5004272460937	-0.0	-0.0	-0.0	-0.0	-0.0	-0.0	40429.6875	11714.419921875	-10226.259765625
0.265	-0.0	-0.0	-0.0	-8.277543067932129	108.9173583984375	-606.9138793945312	-22.728790283203125	-27.21245384216309	-294.1866149902344	-0.0	-0.0	-0.0	-0.0	-0.0	-0.0	41720.3515625	12216.0498046875	-10995.623046875
0.2655	-0.0	-0.0	-0.0	-11.154485702514648	108.16610717773438	-599.3338012695312	-24.801189422607425	-28.695131301879883	-305.7079162597656	-0.0	-0.0	-0.0	-0.0	-0.0	-0.0	43161.703125	12863.060546875	-11431.7314453125
0.266	-0.0	-0.0	-0.0	-13.53107738494873	107.82852935791016	-591.0608520507812	-26.860294342041016	-30.01987838745117	-313.11395263671875	-0.0	-0.0	-0.0	-0.0	-0.0	-0.0	45001.09765625	13143.580078125	-12056.6103515625
0.2665	-0.0	-0.0	-0.0	-16.156784057617188	106.5205078125	-584.82763671875	-28.15011405944824	-32.39495086669922	-324.3710021972656	-0.0	-0.0	-0.0	-0.0	-0.0	-0.0	45996.5625	13773.224609375	-12569.7197265625
0.267	-0.0	-0.0	-0.0	-18.654741287231445	106.28237915039062	-576.6656494140625	-29.413419723510746	-35.044517517089844	-330.6845397949219	-0.0	-0.0	-0.0	-0.0	-0.0	-0.0	47130.67578125	14022.42578125	-12896.916015625
0.2675	-0.0	-0.0	-0.0	-21.4105224609375	106.77902221679688	-567.913330078125	-30.576061248779297	-38.05819320678711	-339.9971618652344	-0.0	-0.0	-0.0	-0.0	-0.0	-0.0	48419.00390625	14224.8505859375	-13198.9951171875
0.268	-0.0	-0.0	-0.0	-23.94829559326172	106.83778381347656	-558.730712890625	-30.763118743896484	-41.12874603271485	-346.9414367675781	-0.0	-0.0	-0.0	-0.0	-0.0	-0.0	49034.0234375	14552.529296875	-13295.4169921875
0.2685	-0.0	-0.0	-0.0	-26.961275100708008	106.70893096923828	-553.2763671875	-31.06842613220215	-45.00493240356445	-353.6519470214844	-0.0	-0.0	-0.0	-0.0	-0.0	-0.0	49729.6875	14718.271484375	-13273.544921875
0.269	-0.0	-0.0	-0.0	-29.81546401977539	107.9960479736328	-549.6633911132812	-31.068580627441406	-48.98896026611328	-359.5092468261719	-0.0	-0.0	-0.0	-0.0	-0.0	-0.0	50350.14453125	14842.58984375	-13060.3642578125
0.2695	-0.0	-0.0	-0.0	-33.45269775390625	109.43205261230467	-543.6583862304688	-30.32914352416992	-53.19857025146485	-363.9694519042969	-0.0	-0.0	-0.0	-0.0	-0.0	-0.0	50930.91015625	14994.4599609375	-12816.958984375
0.27	-0.0	-0.0	-0.0	-36.45670700073242	110.8478546142578	-540.164794921875	-29.49208068847656	-58.23242568969727	-368.1241760253906	-0.0	-0.0	-0.0	-0.0	-0.0	-0.0	51344.25390625	14945.1787109375	-12649.1806640625
0.2705	-0.0	-0.0	-0.0	-39.36222076416016	112.1158676147461	-538.1251831054688	-29.343097686767575	-62.47150039672852	-373.47314453125	-0.0	-0.0	-0.0	-0.0	-0.0	-0.0	51670.9921875	15329.029296875	-12215.1669921875
0.271	-0.0	-0.0	-0.0	-41.81635665893555	113.216064453125	-531.14208984375	-28.88164710998535	-66.78892517089844	-375.6170654296875	-0.0	-0.0	-0.0	-0.0	-0.0	-0.0	51735.91015625	15045.8525390625	-11761.576171875
0.2715	-0.0	-0.0	-0.0	-42.52246856689453	113.55213928222656	-525.096923828125	-28.48637008666992	-70.80350494384766	-380.1055908203125	-0.0	-0.0	-0.0	-0.0	-0.0	-0.0	52164.74609375	15093.7626953125	-11297.9833984375
0.272	-0.0	-0.0	-0.0	-46.5845947265625	115.29734802246094	-521.605712890625	-27.77672576904297	-74.67932891845703	-382.62982177734375	-0.0	-0.0	-0.0	-0.0	-0.0	-0.0	52225.87109375	15325.974609375	-10906.044921875
0.2725	-0.0	-0.0	-0.0	-48.85609817504883	116.82913970947266	-517.4498291015625	-27.527172088623047	-78.8877182006836	-385.3416137695313	-0.0	-0.0	-0.0	-0.0	-0.0	-0.0	52343.5859375	15219.759765625	-10495.1513671875
0.273	-0.0	-0.0	-0.0	-50.5351448059082	117.81990814208984	-512.1525268554688	-26.660381317138672	-82.88233947753906	-387.7218933105469	-0.0	-0.0	-0.0	-0.0	-0.0	-0.0	52449.42578125	15145.1865234375	-10193.9306640625
0.2735	-0.0	-0.0	-0.0	-51.72101211547852	118.31817626953124	-506.8356323242188	-26.602802276611328	-86.49292755126953	-392.4464111328125	-0.0	-0.0	-0.0	-0.0	-0.0	-0.0	52411.62890625	15235.111328125	-9856.1982421875
0.274	-0.0	-0.0	-0.0	-52.26673889160156	119.19281005859376	-502.5750732421875	-26.41478729248047	-89.52679443359375	-394.5413208007813	-0.0	-0.0	-0.0	-0.0	-0.0	-0.0	52821.59375	15276.8427734375	-9586.3154296875
0.2745	-0.0	-0.0	-0.0	-53.06958770751953	119.0355987548828	-496.7820739746094	-26.26894760131836	-92.34245300292967	-397.3760681152344	-0.0	-0.0	-0.0	-0.0	-0.0	-0.0	53219.78125	15460.1455078125	-9229.5048828125
0.275	-0.0	-0.0	-0.0	-53.9367790222168	118.5863037109375	-491.1748962402344	-26.446430206298828	-94.58196258544922	-400.4769287109375	-0.0	-0.0	-0.0	-0.0	-0.0	-0.0	53329.8359375	15372.0595703125	-9074.9013671875
0.2755	-0.0	-0.0	-0.0	-55.1104850769043	118.3327865600586	-483.5998229980469	-25.570098876953125	-96.6802978515625	-401.73486328125	-0.0	-0.0	-0.0	-0.0	-0.0	-0.0	53644.453125	15567.140625	-8852.962890625
0.276	-0.0	-0.0	-0.0	-55.6673583984375	118.26520538330078	-477.88580322265625	-25.5487060546875	-98.03707885742188	-404.5399475097656	-0.0	-0.0	-0.0	-0.0	-0.0	-0.0	53579.17578125	15334.31640625	-8656.416015625
0.2765	-0.0	-0.0	-0.0	-56.15706253051758	117.12825775146484	-468.88580322265625	-25.59420585632324	-99.21980285644533	-406.6340942382813	-0.0	-0.0	-0.0	-0.0	-0.0	-0.0	53488.25390625	15200.361328125	-8527.3193359375
0.277	-0.0	-0.0	-0.0	-56.78313446044922	115.9463882446289	-461.8237609863281	-25.21395301818848	-100.05763244628906	-406.8901062011719	-0.0	-0.0	-0.0	-0.0	-0.0	-0.0	53700.7734375	15346.380859375	-8408.60546875
0.2775	-0.0	-0.0	-0.0	-57.21703720092773	114.8449935913086	-453.0862121582031	-25.615571975708008	-100.38912963867188	-407.6748962402344	-0.0	-0.0	-0.0	-0.0	-0.0	-0.0	53983.796875	15076.4873046875	-8401.6708984375
0.278	-0.0	-0.0	-0.0	-57.42934036254883	113.61875915527344	-445.6250915527344	-25.30457878112793	-101.23925018310548	-409.5548706054688	-0.0	-0.0	-0.0	-0.0	-0.0	-0.0	54337.78125	15356.4765625	-8468.298828125
0.2785	-0.0	-0.0	-0.0	-57.94213104248047	111.74738311767578	-436.6631164550781	-25.37128448486328	-101.1285400390625	-410.602294921875	-0.0	-0.0	-0.0	-0.0	-0.0	-0.0	54480.86328125	15222.279296875	-8364.52734375
0.279	-0.0	-0.0	-0.0	-57.27314758300781	109.49696350097656	-429.2468872070313	-25.238285064697266	-100.97380065917967	-413.351806640625	-0.0	-0.0	-0.0	-0.0	-0.0	-0.0	54598.0625	15433.890625	-8234.5859375
0.2795	-0.0	-0.0	-0.0	-56.04679489135742	106.6563949584961	-423.0201110839844	-25.31612968444824	-101.2055206298828	-413.8327331542969	-0.0	-0.0	-0.0	-0.0	-0.0	-0.0	54463.109375	15102.4716796875	-8305.017578125
0.28	-0.0	-0.0	-0.0	-54.173458099365234	102.92446899414062	-415.1211242675781	-25.703672409057617	-101.61466217041016	-417.01959228515625	-0.0	-0.0	-0.0	-0.0	-0.0	-0.0	54941.125	15227.6181640625	-8205.45703125
0.2805	-0.0	-0.0	-0.0	-52.52218246459961	98.85700988769533	-408.8920593261719	-25.51483154296875	-101.52658081054688	-420.2452087402344	-0.0	-0.0	-0.0	-0.0	-0.0	-0.0	55276.8984375	14904.779296875	-8216.10546875
0.281	-0.0	-0.0	-0.0	-49.71321868896485	95.24862670898438	-402.7160339355469	-25.328048706054688	-102.05682373046876	-420.6470031738281	-0.0	-0.0	-0.0	-0.0	-0.0	-0.0	55834.52734375	15024.353515625	-8020.509765625
0.28150000000000003	-0.0	-0.0	-0.0	-46.9046630859375	91.42774200439452	-398.9564514160156	-25.3598747253418	-102.68660736083984	-424.8277282714844	-0.0	-0.0	-0.0	-0.0	-0.0	-0.0	55848.703125	14971.3876953125	-8245.7958984375
0.28200000000000003	-0.0	-0.0	-0.0	-43.934364318847656	87.27388763427734	-396.0985107421875	-24.907962799072266	-103.8891830444336	-427.846435546875	-0.0	-0.0	-0.0	-0.0	-0.0	-0.0	56756.25390625	14713.66015625	-8016.04443359375
